<?xml version="1.0" standalone="no"?><!DOCTYPE svg PUBLIC "-//W3C//DTD SVG 1.1//EN" "http://www.w3.org/Graphics/SVG/1.1/DTD/svg11.dtd"><svg t="1660924137023" class="icon" viewBox="0 0 1024 1024" version="1.1" xmlns="http://www.w3.org/2000/svg" p-id="5181" xmlns:xlink="http://www.w3.org/1999/xlink" width="200" height="200"><defs><style type="text/css"></style></defs><path d="M0 0h1024v1024H0z" fill="#FFFFFF" p-id="5182"></path><path d="M0 194.56a61.44 61.44 0 0 1 61.44-61.44h901.12a61.44 61.44 0 0 1 61.44 61.44v634.88a61.44 61.44 0 0 1-61.44 61.44H61.44a61.44 61.44 0 0 1-61.44-61.44V194.56z" fill="#29B4FF" p-id="5183"></path><path d="M691.2 485.39648c20.48 11.8272 20.48 41.37984 0 53.20704l-245.76 141.88544c-20.48 11.8272-46.08-2.94912-46.08-26.60352V370.11456c0-23.6544 25.6-38.43072 46.08-26.61376l245.76 141.89568z" fill="#7BD1FF" p-id="5184"></path><path d="M102.4 204.8a30.72 30.72 0 0 0-30.72 30.72v40.96a30.72 30.72 0 0 0 30.72 30.72h40.96a30.72 30.72 0 0 0 30.72-30.72v-40.96a30.72 30.72 0 0 0-30.72-30.72h-40.96z m0 163.84a30.72 30.72 0 0 0-30.72 30.72v40.96a30.72 30.72 0 0 0 30.72 30.72h40.96a30.72 30.72 0 0 0 30.72-30.72v-40.96a30.72 30.72 0 0 0-30.72-30.72h-40.96zM71.68 573.44a30.72 30.72 0 0 1 30.72-30.72h40.96a30.72 30.72 0 0 1 30.72 30.72v40.96a30.72 30.72 0 0 1-30.72 30.72h-40.96a30.72 30.72 0 0 1-30.72-30.72v-40.96z m30.72 143.36a30.72 30.72 0 0 0-30.72 30.72v40.96a30.72 30.72 0 0 0 30.72 30.72h40.96a30.72 30.72 0 0 0 30.72-30.72v-40.96a30.72 30.72 0 0 0-30.72-30.72h-40.96zM880.64 204.8a30.72 30.72 0 0 0-30.72 30.72v40.96a30.72 30.72 0 0 0 30.72 30.72h40.96a30.72 30.72 0 0 0 30.72-30.72v-40.96a30.72 30.72 0 0 0-30.72-30.72h-40.96z m0 163.84a30.72 30.72 0 0 0-30.72 30.72v40.96a30.72 30.72 0 0 0 30.72 30.72h40.96a30.72 30.72 0 0 0 30.72-30.72v-40.96a30.72 30.72 0 0 0-30.72-30.72h-40.96z m-30.72 204.8a30.72 30.72 0 0 1 30.72-30.72h40.96a30.72 30.72 0 0 1 30.72 30.72v40.96a30.72 30.72 0 0 1-30.72 30.72h-40.96a30.72 30.72 0 0 1-30.72-30.72v-40.96z m30.72 143.36a30.72 30.72 0 0 0-30.72 30.72v40.96a30.72 30.72 0 0 0 30.72 30.72h40.96a30.72 30.72 0 0 0 30.72-30.72v-40.96a30.72 30.72 0 0 0-30.72-30.72h-40.96z" fill="#0099EE" p-id="5185"></path></svg>